HIERARCHY
ROOT ui
{
	 OFFSET 0 0 0
	 CHANNELS 3 XPosition YPosition Z Position
	 EndSite
	 {
	 OFFSET 0 -1 0
	 }
}
ROOT li
{
	 OFFSET 0 0 0
	 CHANNELS 3 XPosition YPosition Z Position
	 EndSite
	 {
	 OFFSET 0 -1 0
	 }
}
ROOT ul
{
	 OFFSET 0 0 0
	 CHANNELS 3 XPosition YPosition Z Position
	 EndSite
	 {
	 OFFSET 0 -1 0
	 }
}
ROOT ll
{
	 OFFSET 0 0 0
	 CHANNELS 3 XPosition YPosition Z Position
	 EndSite
	 {
	 OFFSET 0 -1 0
	 }
}
ROOT tt
{
	 OFFSET 0 0 0
	 CHANNELS 3 XPosition YPosition Z Position
	 EndSite
	 {
	 OFFSET 0 -1 0
	 }
}
ROOT tb
{
	 OFFSET 0 0 0
	 CHANNELS 3 XPosition YPosition Z Position
	 EndSite
	 {
	 OFFSET 0 -1 0
	 }
}
ROOT td
{
	 OFFSET 0 0 0
	 CHANNELS 3 XPosition YPosition Z Position
	 EndSite
	 {
	 OFFSET 0 -1 0
	 }
}
ROOT v
{
	 OFFSET 0 0 0
	 CHANNELS 3 XPosition YPosition Z Position
	 EndSite
	 {
	 OFFSET 0 -1 0
	 }
}
ROOT bn
{
	 OFFSET 0 0 0
	 CHANNELS 3 XPosition YPosition Z Position
	 EndSite
	 {
	 OFFSET 0 -1 0
	 }
}
MOTION
Frames: 32
Frame Time: 0.002
-0.030750295639038087	0.0010491960048675537	0		0.5165567626953125	-2.3316865234375	0		-0.9580987548828125	0.3557402954101562	0		-0.34196484375	-2.570671142578125	0		1.69362353515625	-0.40636300659179686	0		3.195053466796875	0.27144598388671876	0		4.40448876953125	0.727687744140625	0		5.9335615234375	0.4394273986816406	0		-0.3277823181152344	5.94411572265625	0		
0.018596624374389647	-0.0016586380004882813	0		0.5438988037109375	-2.333907958984375	0		-0.921724853515625	0.3543251953125	0		-0.32466583251953124	-2.574666015625	0		1.667387451171875	-0.3893940124511719	0		3.209965576171875	0.24948439025878907	0		4.39871923828125	0.7201840209960938	0		5.950123046875	0.4253192749023437	0		-0.31217852783203126	5.952162109375	0		
-0.029997932434082032	-2.0492200553417207E-4	0		0.534260498046875	-2.334323486328125	0		-0.949167236328125	0.3623152160644531	0		-0.3160875244140625	-2.565479736328125	0		1.686263427734375	-0.367443359375	0		3.207872314453125	0.27289373779296877	0		4.4039150390625	0.7114173583984374	0		5.94932666015625	0.46402505493164065	0		-0.311777099609375	5.95152880859375	0		
0.028529327392578126	0.005854773998260498	0		0.551806640625	-2.326355712890625	0		-0.883728515625	0.3642255859375	0		-0.3234476318359375	-2.5529521484375	0		1.6641197509765624	-0.34559619140625	0		3.174756591796875	0.2509652862548828	0		4.402171875	0.70578857421875	0		5.9495859375	0.46284246826171876	0		-0.32850811767578125	5.9452607421875	0		
-0.005302865028381348	-0.003048316955566406	0		0.5153824462890625	-2.3162001953125	0		-0.9224237060546875	0.36143817138671874	0		-0.3446768188476563	-2.534126708984375	0		1.6706312255859375	-0.33940350341796877	0		3.198245361328125	0.25577024841308593	0		4.39809228515625	0.6851923828125	0		5.9498427734375	0.461630859375	0		-0.32810968017578124	5.9446015625	0		
0.020048315048217774	-0.0042766470909118654	0		0.539605712890625	-2.322408935546875	0		-0.8911602783203125	0.3560840759277344	0		-0.3422940063476563	-2.532841552734375	0		1.6591671142578126	-0.33182296752929685	0		3.2041806640625	0.23594583129882812	0		4.3888564453125	0.6576948852539063	0		5.9568173828125	0.49290774536132814	0		-0.32868624877929686	5.9449541015625	0		
-0.028561603546142577	-0.0028680789470672606	0		0.525857177734375	-2.3267822265625	0		-0.9235042114257812	0.3691409606933594	0		-0.3291399841308594	-2.5418076171875	0		1.658742919921875	-0.32249810791015626	0		3.19000927734375	0.25656707763671877	0		4.3792197265625	0.6572005004882813	0		5.9618408203125	0.4671617126464844	0		-0.3140634765625	5.9539609375	0		
0.020757951736450196	-0.00564696216583252	0		0.5204817504882813	-2.314344970703125	0		-0.9481630859375	0.3680173645019531	0		-0.4611072692871094	-2.50953955078125	0		1.6675819091796875	-0.30138458251953126	0		3.20662646484375	0.2224805145263672	0		4.3792900390625	0.6434771118164062	0		5.96954150390625	0.5000866088867187	0		-0.3146350402832031	5.95429736328125	0		
0.006336643218994141	0.003992301940917969	0		0.522856689453125	-2.3130869140625	0		-0.883734130859375	0.36990756225585936	0		-0.3330772705078125	-2.525075439453125	0		1.691635986328125	-0.31562353515625	0		3.193184814453125	0.23106822204589844	0		4.386201171875	0.6225933837890625	0		5.97925439453125	0.519046875	0		-0.31422756958007814	5.95360791015625	0		
0.02145956039428711	-0.007031483173370361	0		0.5113425598144531	-2.306518310546875	0		-0.9301243286132812	0.38126873779296877	0		-0.45840914916992187	-2.5089599609375	0		1.65921337890625	-0.30559909057617185	0		3.19835693359375	0.22223576354980468	0		4.37726904296875	0.6090625610351562	0		5.97004296875	0.49749490356445314	0		-0.32901705932617187	5.944255859375	0		
-0.004990488052368164	0.0018805149793624878	0		0.5116619873046875	-2.3072109375	0		-0.8988746948242188	0.37590057373046876	0		-0.3411877136230469	-2.515250244140625	0		1.696409912109375	-0.3131265869140625	0		3.191480712890625	0.2116746368408203	0		4.3741728515625	0.58840283203125	0		5.97028759765625	0.4962010498046875	0		-0.3153502197265625	5.95527880859375	0		
-0.0028620290756225584	-0.007839914798736572	0		0.48704110717773436	-2.30433740234375	0		-0.9526615600585937	0.3704375305175781	0		-0.4876019592285156	-2.501649169921875	0		1.6298646240234376	-0.30732907104492185	0		3.200765869140625	0.20876353454589844	0		4.37317431640625	0.5727058715820312	0		5.97795654296875	0.5273973388671875	0		-0.3007621765136719	5.96328955078125	0		
-0.017303071975708007	0.002828775882720947	0		0.5002347106933593	-2.309294921875	0		-0.9132683715820312	0.372912841796875	0		-0.44517218017578125	-2.496246337890625	0		1.6594095458984375	-0.29765899658203127	0		3.223228515625	0.21457460021972657	0		4.38348779296875	0.5717743530273437	0		5.982962890625	0.5033879699707031	0		-0.3003908386230469	5.96262939453125	0		
0.002066072940826416	0.0057612619400024415	0		0.49478726196289063	-2.296811767578125	0		-0.95565673828125	0.387236083984375	0		-0.47783804321289064	-2.493148193359375	0		1.6566024169921876	-0.3022506103515625	0		3.18830078125	0.20468276977539063	0		4.37964501953125	0.5651775512695313	0		5.97838134765625	0.5249241943359375	0		-0.31521990966796876	5.95432666015625	0		
0.0023216149806976317	0.005145135879516601	0		0.5070609741210937	-2.295701416015625	0		-0.8885033569335937	0.3811343688964844	0		-0.41275820922851564	-2.501209716796875	0		1.6648082275390625	-0.3050617980957031	0		3.199421630859375	0.19778996276855468	0		4.3864580078125	0.5443654174804687	0		5.978564453125	0.523752197265625	0		-0.3149036865234375	5.9537138671875	0		
-0.01653927993774414	9.857410192489625E-4	0		0.4823346862792969	-2.292733642578125	0		-0.9592357177734375	0.3831446533203125	0		-0.44448486328125	-2.498076171875	0		1.66502880859375	-0.30566357421875	0		3.1904931640625	0.19037548828125	0		4.3815322265625	0.5368495483398438	0		5.9835087890625	0.49987997436523435	0		-0.31461965942382814	5.9531318359375	0		
-0.003397053003311157	-0.0018540600538253784	0		0.5074285278320313	-2.296846435546875	0		-0.9240728149414063	0.380822265625	0		-0.4443197326660156	-2.49862158203125	0		1.6510853271484376	-0.3119156799316406	0		3.20077197265625	0.19356907653808594	0		4.39243408203125	0.5230130615234375	0		5.97683349609375	0.5338023071289062	0		-0.3011271362304688	5.9632919921875	0		
-0.021079153060913087	0.005035308837890625	0		0.468550048828125	-2.297490478515625	0		-0.9466380615234375	0.39283132934570314	0		-0.4730238037109375	-2.49148193359375	0		1.660505126953125	-0.30064776611328126	0		3.186733154296875	0.18434124755859374	0		4.39641650390625	0.5143706665039063	0		5.9894189453125	0.570207275390625	0		-0.3018885803222656	5.9638056640625	0		
0.027989858627319335	0.0014697140455245971	0		0.5117546691894531	-2.293928466796875	0		-0.914605712890625	0.3876556396484375	0		-0.44099734497070314	-2.495662353515625	0		1.6406556396484375	-0.29968679809570314	0		3.211720458984375	0.17728224182128907	0		4.40725390625	0.5006148071289063	0		5.99429345703125	0.5465368041992188	0		-0.30170425415039065	5.96333837890625	0		
-0.020854564666748048	0.004139723777770996	0		0.4480707092285156	-2.282929443359375	0		-0.9504944458007812	0.3880443420410156	0		-0.4409231262207031	-2.496084228515625	0		1.6607237548828124	-0.301576171875	0		3.211820556640625	0.17682498168945313	0		4.40804345703125	0.4861270446777344	0		5.98958056640625	0.5684536743164063	0		-0.3157456359863281	5.95423095703125	0		
0.02509613037109375	-0.002269020080566406	0		0.4979980773925781	-2.289432373046875	0		-0.9185140380859375	0.3829579162597656	0		-0.47688671875	-2.496653564453125	0		1.6408223876953125	-0.30052490234375	0		3.20467431640625	0.16657276916503908	0		4.4088310546875	0.47268475341796873	0		5.9838818359375	0.5628154296875	0		-0.314635986328125	5.95283203125	0		
-0.020728160858154297	0.00342718505859375	0		0.45694833374023436	-2.2928505859375	0		-0.9462718505859375	0.39125942993164065	0		-0.4640192565917969	-2.504271240234375	0		1.6624852294921875	-0.31836251831054685	0		3.22647607421875	0.1547182159423828	0		4.41370751953125	0.46419842529296873	0		5.99242822265625	0.556483154296875	0		-0.30032699584960937	5.9611865234375	0		
0.02824667739868164	4.5249000191688536E-5	0		0.4880391845703125	-2.289835205078125	0		-0.9411476440429688	0.3948714294433594	0		-0.5046434631347656	-2.487635986328125	0		1.677622314453125	-0.3140010070800781	0		3.211984130859375	0.175732421875	0		4.4175859375	0.45678192138671875	0		5.996177734375	0.5729884033203125	0		-0.3002353820800781	5.96090478515625	0		
-0.017616981506347655	0.005839962005615235	0		0.46310198974609373	-2.286515625	0		-0.9411309204101562	0.39464584350585935	0		-0.46402532958984377	-2.504781494140625	0		1.6776317138671875	-0.3142533874511719	0		3.200463134765625	0.15171707153320313	0		4.41549169921875	0.45154766845703126	0		5.987677734375	0.5781289672851563	0		-0.31436007690429685	5.95198876953125	0		
0.028252580642700195	-3.7630200386047364E-4	0		0.4979951171875	-2.29049072265625	0		-0.941133544921875	0.394469970703125	0		-0.5098224792480469	-2.493932861328125	0		1.6776217041015624	-0.3144567565917969	0		3.21445458984375	0.15118360900878905	0		4.41101953125	0.4304105224609375	0		5.99245751953125	0.5549420166015625	0		-0.31430426025390623	5.951806640625	0		
-0.025604164123535156	0.00769686222076416	0		0.47299398803710935	-2.288072265625	0		-0.9462452392578125	0.3904566345214844	0		-0.438366455078125	-2.5166748046875	0		1.695114990234375	-0.33601043701171873	0		3.219247802734375	0.1429017639160156	0		4.4216796875	0.4159825439453125	0		5.9876552734375	0.577348388671875	0		-0.31426718139648435	5.95167333984375	0		
0.0032039868831634523	9.583770036697387E-4	0		0.48273638916015627	-2.29638916015625	0		-0.9412022094726562	0.39426483154296876	0		-0.49349795532226565	-2.518523193359375	0		1.66504638671875	-0.33644451904296874	0		3.209538818359375	0.15799752807617187	0		4.4257685546875	0.4217527770996094	0		5.99612939453125	0.5714230346679687	0		-0.3000520324707031	5.96027099609375	0		
-0.020840492248535156	0.0024537529945373535	0		0.47059518432617187	-2.298168212890625	0		-0.9330929565429688	0.40205032348632813	0		-0.4169786987304688	-2.536286865234375	0		1.6680587158203124	-0.33257553100585935	0		3.2280810546875	0.1404946746826172	0		4.4364052734375	0.40841473388671873	0		6.01032373046875	0.5687212524414063	0		-0.3000568542480469	5.96023095703125	0		
0.00121664297580719	0.008956635475158691	0		0.51153076171875	-2.29609716796875	0		-0.9290940551757813	0.4059692077636719	0		-0.4947685546875	-2.520533447265625	0		1.6868204345703126	-0.3390216369628906	0		3.2231689453125	0.1485663146972656	0		4.43700048828125	0.39434295654296875	0		6.0102568359375	0.5685971069335938	0		-0.31332595825195314	5.9495283203125	0		
0.008809389114379883	-0.0041825370788574215	0		0.5170966796875	-2.309197265625	0		-0.9023889770507812	0.39741250610351564	0		-0.4244241638183594	-2.544081298828125	0		1.6925445556640626	-0.3461373291015625	0		3.227876708984375	0.1404551239013672	0		4.44757470703125	0.38008392333984375	0		6.010177734375	0.5685376586914063	0		-0.31336834716796874	5.9495693359375	0		
-2.7061301469802855E-4	-0.0019092689752578736	0		0.48015365600585935	-2.2993017578125	0		-0.9375025634765625	0.39828225708007814	0		-0.46934548950195315	-2.532994873046875	0		1.6982540283203125	-0.35321951293945314	0		3.20966552734375	0.1368938446044922	0		4.43745458984375	0.3803269958496094	0		6.010087890625	0.5685354614257813	0		-0.30017999267578127	5.96034912109375	0		
0.0026580240726470947	0.0011228920221328736	0		0.5147313232421875	-2.310992431640625	0		-0.933546875	0.40230291748046876	0		-0.46280853271484373	-2.54604296875	0		1.719723388671875	-0.3706304931640625	0		3.242137939453125	0.11921703338623046	0		4.45284423828125	0.35901919555664064	0		6.0137158203125	0.5856841430664063	0		-0.299291748046875	5.95843115234375	0		
